<svg width="100%" height="399" viewBox="0 0 529 399" fill="none" xmlns="http://www.w3.org/2000/svg">
<path opacity="0.3" d="M126.762 162.085C90.1815 168.583 64.3266 200.466 68.5718 235.446C70.8333 253.974 79.9982 270.425 103.578 275.15C166.133 287.736 402.265 335.117 448.658 253.022C484.829 189.044 463.272 144.748 429.68 117.021C396.089 89.2938 326.525 95.0509 268.957 114.03C226.148 128.178 194.315 150.068 126.762 162.085Z" fill="#E6E6E6"/>
<path opacity="0.45" d="M271.906 341.007C389.514 341.007 484.855 333.955 484.855 325.257C484.855 316.559 389.514 309.508 271.906 309.508C154.298 309.508 58.957 316.559 58.957 325.257C58.957 333.955 154.298 341.007 271.906 341.007Z" fill="#E6E6E6"/>
<path d="M152.511 106.592C166.491 106.592 177.824 95.2504 177.824 81.2602C177.824 67.2701 166.491 55.9288 152.511 55.9288C138.531 55.9288 127.198 67.2701 127.198 81.2602C127.198 95.2504 138.531 106.592 152.511 106.592Z" fill="#FFD200"/>
<path opacity="0.15" d="M152.51 129.554C179.163 129.554 200.768 107.932 200.768 81.2603C200.768 54.5884 179.163 32.9665 152.51 32.9665C125.858 32.9665 104.252 54.5884 104.252 81.2603C104.252 107.932 125.858 129.554 152.51 129.554Z" fill="#FFD200"/>
<path d="M258.8 324.529C296.175 324.529 326.473 294.209 326.473 256.807C326.473 219.405 296.175 189.084 258.8 189.084C221.426 189.084 191.128 219.405 191.128 256.807C191.128 294.209 221.426 324.529 258.8 324.529Z" fill="#24285B"/>
<path d="M258.8 299.436C282.326 299.436 301.398 280.35 301.398 256.807C301.398 233.263 282.326 214.177 258.8 214.177C235.274 214.177 216.202 233.263 216.202 256.807C216.202 280.35 235.274 299.436 258.8 299.436Z" fill="white"/>
<path d="M177.096 272.966C181.579 272.966 183.193 274.581 183.193 279.054V286.77C183.193 291.257 181.87 292.872 177.096 292.872H164.731V316.363C164.731 320.837 163.117 322.451 158.634 322.451H149.853C145.382 322.451 143.769 320.837 143.769 316.363V292.872H84.64C80.17 292.872 78.5565 291.257 78.5565 286.77V280.312C78.4363 277.697 79.1799 275.116 80.6725 272.966L140.185 199.076C141.182 197.737 142.479 196.65 143.972 195.903C145.465 195.156 147.112 194.769 148.781 194.775H158.7C163.183 194.775 164.797 196.032 164.797 200.876V272.966H177.096ZM143.769 224.898L104.874 272.966H143.769V224.898Z" fill="#55789B"/>
<path d="M433.013 272.966C437.496 272.966 439.11 274.581 439.11 279.054V286.77C439.11 291.257 437.853 292.872 433.013 292.872H420.648V316.363C420.648 320.837 419.034 322.451 414.551 322.451H405.769C401.299 322.451 399.686 320.837 399.686 316.363V292.872H340.544C336.074 292.872 334.46 291.257 334.46 286.77V280.312C334.348 277.694 335.101 275.112 336.603 272.966L396.115 199.076C397.112 197.737 398.409 196.65 399.902 195.903C401.395 195.156 403.042 194.769 404.711 194.775H414.564C419.047 194.775 420.661 196.032 420.661 200.876V272.966H433.013ZM399.686 224.898L360.791 272.966H399.686V224.898Z" fill="#55789B"/>
<path opacity="0.58" d="M406.47 180.349C406.47 180.349 395.216 177.279 392.769 166.784C392.769 166.784 410.213 163.263 410.715 181.276L406.47 180.349Z" fill="#55789B"/>
<path opacity="0.73" d="M407.859 179.237C407.859 179.237 399.99 166.784 406.907 155.15C406.907 155.15 420.132 163.581 414.286 179.264L407.859 179.237Z" fill="#55789B"/>
<path d="M409.882 179.251C409.882 179.251 414.035 166.095 426.612 163.607C426.612 163.607 428.966 172.144 418.465 179.277L409.882 179.251Z" fill="#55789B"/>
<path d="M401.723 178.946L403.997 194.577L418.373 194.643L420.489 179.026L401.723 178.946Z" fill="#24285B"/>
<path d="M266.986 167.882C266.986 167.882 268.838 176.816 268.031 183.009C267.956 183.612 267.763 184.193 267.461 184.72C267.16 185.246 266.757 185.708 266.276 186.077C265.795 186.447 265.245 186.717 264.658 186.872C264.072 187.027 263.461 187.063 262.86 186.98C259.752 186.53 255.679 185.021 254.105 180.362L250.455 172.752C249.886 171.153 249.826 169.416 250.283 167.781C250.74 166.146 251.692 164.692 253.008 163.62C257.689 159.306 266.127 162.443 266.986 167.882Z" fill="#F4A28C"/>
<path d="M251.117 174.089L249.926 204.013L266.444 203.484L260.678 181.924L251.117 174.089Z" fill="#F4A28C"/>
<path d="M264.777 168.517C261.993 168.965 259.166 169.084 256.353 168.875C257.306 170.012 257.906 171.404 258.08 172.878C258.254 174.352 257.994 175.845 257.332 177.173C256.714 178.473 255.663 179.516 254.36 180.125C253.057 180.734 251.582 180.869 250.19 180.508L248.96 168.835C248.723 167.172 248.943 165.475 249.595 163.927C250.247 162.38 251.308 161.038 252.663 160.047C253.83 159.175 255.053 158.384 256.327 157.678C259.514 155.931 264.685 157.585 267.422 154.965C267.7 154.705 268.041 154.522 268.41 154.433C268.78 154.343 269.166 154.351 269.532 154.455C269.898 154.558 270.23 154.755 270.498 155.025C270.766 155.295 270.959 155.63 271.059 155.997C272.012 159.478 272.038 165.129 267.475 167.631C266.633 168.077 265.721 168.377 264.777 168.517Z" fill="#24285B"/>
<path d="M258.271 176.789C258.271 176.789 257.795 173.295 255.203 173.877C252.611 174.46 253.272 179.502 256.895 179.542L258.271 176.789Z" fill="#F4A28C"/>
<path d="M267.859 173.573L270.809 176.763C270.976 176.945 271.094 177.167 271.152 177.408C271.211 177.648 271.208 177.9 271.143 178.139C271.078 178.378 270.954 178.596 270.783 178.775C270.611 178.953 270.397 179.085 270.16 179.158L266.775 180.217L267.859 173.573Z" fill="#F4A28C"/>
<path opacity="0.31" d="M262.146 186.596C260.044 186.321 258.067 185.438 256.459 184.055C256.459 184.055 257.332 189.468 263.944 194.127L262.146 186.596Z" fill="#CE8172"/>
<path d="M249.952 204.013L266.47 203.484C266.47 203.484 292.418 199.076 301.424 220.252C310.43 241.428 298.885 271.352 298.885 271.352C298.885 271.352 289.495 302.943 249.952 299.449C249.952 299.449 217.062 297.543 213.346 252.426C213.177 250.458 212.877 248.504 212.446 246.576C210.939 239.522 210.066 218.121 249.952 204.013Z" fill="#55789B"/>
<path opacity="0.08" d="M227.827 232.124C227.827 232.124 236.635 233.09 248.868 253.591C261.101 274.091 285.118 266.574 298.66 251.407L273.533 284.679L245.39 282.416L230.089 241.653L227.827 232.124Z" fill="black"/>
<path d="M324.279 184.674L319.442 185.32L321.323 199.409L326.16 198.763L324.279 184.674Z" fill="#FFD200"/>
<path opacity="0.08" d="M324.279 184.674L319.442 185.32L321.323 199.409L326.16 198.763L324.279 184.674Z" fill="black"/>
<path d="M326.998 194.67L319.565 195.664L321.981 213.754L329.413 212.76L326.998 194.67Z" fill="#24285B"/>
<path d="M317.4 155.521C314.263 155.941 311.322 157.283 308.947 159.377C306.572 161.47 304.871 164.221 304.059 167.282C303.246 170.343 303.359 173.577 304.383 176.573C305.407 179.57 307.295 182.196 309.81 184.119C312.325 186.041 315.353 187.174 318.511 187.375C321.67 187.576 324.817 186.834 327.554 185.245C330.292 183.656 332.497 181.29 333.891 178.447C335.285 175.604 335.805 172.411 335.386 169.272C335.108 167.187 334.421 165.177 333.367 163.358C332.312 161.538 330.91 159.945 329.239 158.668C327.569 157.391 325.664 156.456 323.632 155.916C321.601 155.376 319.483 155.241 317.4 155.521ZM321.024 182.599C318.806 182.899 316.55 182.534 314.54 181.55C312.53 180.566 310.857 179.008 309.733 177.072C308.609 175.136 308.083 172.91 308.224 170.675C308.364 168.441 309.164 166.298 310.522 164.518C311.879 162.739 313.734 161.402 315.852 160.678C317.969 159.954 320.253 159.874 322.415 160.45C324.577 161.025 326.52 162.23 327.998 163.911C329.476 165.592 330.423 167.674 330.718 169.894C331.11 172.856 330.316 175.853 328.511 178.233C326.705 180.612 324.033 182.182 321.076 182.599H321.024Z" fill="#FFD200"/>
<path d="M319.608 182.811C325.882 182.811 330.969 177.721 330.969 171.442C330.969 165.163 325.882 160.073 319.608 160.073C313.334 160.073 308.248 165.163 308.248 171.442C308.248 177.721 313.334 182.811 319.608 182.811Z" fill="white"/>
<path d="M212.922 234.347C213.325 232.794 214.175 231.393 215.367 230.32C216.559 229.247 218.041 228.548 219.627 228.311C221.213 228.074 222.833 228.309 224.287 228.987C225.74 229.665 226.962 230.756 227.801 232.124C234.113 242.35 239.427 253.159 243.671 264.403C253.126 289.629 299.493 272.993 316.606 214.177L326.367 220.252C326.367 220.252 312.903 296.643 258.707 299.449C258.707 299.449 224.878 306.305 214.602 264.761C214.602 264.761 211.957 256.939 211.798 252.519L211.084 247.542C210.975 243.123 211.564 238.715 212.83 234.48L212.922 234.347Z" fill="#55789B"/>
<path opacity="0.39" d="M212.922 234.347C213.325 232.794 214.175 231.393 215.367 230.32C216.559 229.247 218.041 228.548 219.627 228.311C221.213 228.074 222.833 228.309 224.287 228.987C225.74 229.665 226.962 230.756 227.801 232.124C234.113 242.35 239.427 253.159 243.671 264.403C253.126 289.629 299.493 272.993 316.606 214.177L326.367 220.252C326.367 220.252 312.903 296.643 258.707 299.449C258.707 299.449 224.878 306.305 214.602 264.761C214.602 264.761 211.957 256.939 211.798 252.519L211.084 247.542C210.975 243.123 211.564 238.715 212.83 234.48L212.922 234.347Z" fill="white"/>
<path d="M319.08 215.66C319.08 215.66 320.071 203.073 325.256 203.1C330.44 203.126 342.62 212.444 323.814 218.598L319.08 215.66Z" fill="#F4A28C"/>
<path d="M454.266 119.562C454.266 117.189 453.324 114.913 451.647 113.235C449.971 111.558 447.697 110.615 445.326 110.615C444.843 110.615 444.361 110.655 443.884 110.734C442.858 108.818 441.332 107.216 439.47 106.098C437.607 104.979 435.476 104.386 433.304 104.381H432.868C433.392 102.271 433.43 100.069 432.977 97.9416C432.524 95.8146 431.593 93.8186 430.255 92.1052C428.917 90.3918 427.206 89.006 425.253 88.0529C423.299 87.0998 421.155 86.6045 418.981 86.6045C416.808 86.6045 414.664 87.0998 412.71 88.0529C410.757 89.006 409.046 90.3918 407.708 92.1052C406.369 93.8186 405.439 95.8146 404.986 97.9416C404.533 100.069 404.571 102.271 405.095 104.381H404.659C403.042 104.328 401.431 104.6 399.922 105.182C398.413 105.764 397.036 106.644 395.873 107.77C394.711 108.895 393.786 110.243 393.155 111.734C392.524 113.224 392.198 114.826 392.198 116.445C392.198 118.064 392.524 119.666 393.155 121.156C393.786 122.646 394.711 123.994 395.873 125.12C397.036 126.245 398.413 127.125 399.922 127.708C401.431 128.29 403.042 128.562 404.659 128.508H446.489V128.429C448.639 128.144 450.612 127.088 452.042 125.457C453.472 123.826 454.262 121.731 454.266 119.562Z" fill="#E6E6E6"/>
<path d="M106.726 208.116C106.726 207.108 106.527 206.11 106.142 205.178C105.756 204.247 105.191 203.401 104.479 202.688C103.767 201.975 102.921 201.41 101.991 201.024C101.06 200.638 100.063 200.44 99.0553 200.44C98.6435 200.448 98.2326 200.483 97.8254 200.546C96.9402 198.899 95.6253 197.523 94.0207 196.565C92.416 195.608 90.5818 195.103 88.7134 195.106H88.3431C88.7981 193.295 88.8343 191.403 88.4489 189.576C88.0634 187.748 87.2666 186.033 86.1189 184.56C84.9713 183.087 83.5031 181.895 81.8259 181.076C80.1488 180.256 78.307 179.83 76.4406 179.83C74.5742 179.83 72.7323 180.256 71.0552 181.076C69.3781 181.895 67.9099 183.087 66.7622 184.56C65.6145 186.033 64.8177 187.748 64.4323 189.576C64.0469 191.403 64.0831 193.295 64.5381 195.106H64.1678C62.7794 195.056 61.3953 195.287 60.098 195.785C58.8007 196.282 57.6168 197.036 56.6171 198.001C55.6173 198.966 54.8222 200.123 54.2791 201.403C53.736 202.683 53.4561 204.059 53.4561 205.449C53.4561 206.839 53.736 208.215 54.2791 209.495C54.8222 210.775 55.6173 211.932 56.6171 212.897C57.6168 213.862 58.8007 214.616 60.098 215.114C61.3953 215.611 62.7794 215.842 64.1678 215.792H100.047V215.726C101.893 215.482 103.587 214.576 104.815 213.177C106.044 211.777 106.723 209.979 106.726 208.116Z" fill="#E6E6E6"/>
</svg>
