<svg width="24" height="24" viewBox="0 0 24 24" fill="none" xmlns="http://www.w3.org/2000/svg">
<path d="M12.6948 17.673L12.0288 18.339C11.7468 18.621 11.2908 18.621 11.0118 18.339L5.17976 12.51C4.89776 12.228 4.89776 11.772 5.17976 11.493L11.0118 5.66095C11.2938 5.37895 11.7498 5.37895 12.0288 5.66095L12.6948 6.32695C12.9798 6.61195 12.9738 7.07695 12.6828 7.35595L9.06776 10.8H17.6898C18.0888 10.8 18.4098 11.121 18.4098 11.52V12.48C18.4098 12.879 18.0888 13.2 17.6898 13.2H9.06776L12.6828 16.644C12.9768 16.923 12.9828 17.388 12.6948 17.673Z" fill="#55789B"/>
</svg>
