<svg
  width="321"
  height="195"
  viewBox="0 0 321 195"
  fill="none"
  xmlns="http://www.w3.org/2000/svg"
>
<path
    opacity="0.3"
    d="M123.721 178.786C183.628 178.786 232.192 173.27 232.192 166.465C232.192 159.66 183.628 154.143 123.721 154.143C63.8135 154.143 15.249 159.66 15.249 166.465C15.249 173.27 63.8135 178.786 123.721 178.786Z"
    fill="#E6E6E6"
  />
<path
    d="M48.3877 92.6714C48.3877 92.6714 32.2704 100.399 30.1676 118.206C28.0647 136.013 22.126 170.4 65.8476 168.438C109.569 166.477 130.187 164.036 119.878 130.596C109.569 97.1557 48.3877 92.6714 48.3877 92.6714Z"
    fill="#FFD200"
  />
<path
    opacity="0.09"
    d="M46.737 101.922C46.2851 104.434 46.5979 107.025 47.6348 109.358C48.6718 111.691 50.385 113.658 52.5524 115.004C58.4843 118.919 67.6217 132.832 74.6975 139.867C75.8017 140.963 76.6741 142.27 77.2625 143.711C77.8509 145.152 78.1433 146.696 78.1223 148.253C78.1223 149.521 78.636 150.927 80.3074 152.298C85.2255 156.323 105.864 158.332 117.405 145.949C128.947 133.565 113.727 127.435 113.727 127.435L62.9982 99.9468L46.737 101.922Z"
    fill="black"
  />
<path
    d="M158.874 162.542C158.874 162.542 159.949 165.285 162.648 165.875C165.347 166.465 166.812 169.811 160.915 169.303C155.017 168.796 151.777 169.687 152.627 166.444C153.476 163.201 153.092 162.714 153.092 162.714L158.874 162.542Z"
    fill="#F4A28C"
  />
<path
    d="M119.269 160.259C119.269 160.259 118.817 163.146 120.824 165.059C122.83 166.972 122.406 170.544 117.604 167.116C112.803 163.687 109.549 162.789 111.926 160.43C114.303 158.072 114.22 157.455 114.22 157.455L119.269 160.259Z"
    fill="#F4A28C"
  />
<path
    d="M124.419 119.221C124.419 119.221 160.483 119.591 160.134 162.645L151.626 164.092C151.626 164.092 149.989 118.625 103.124 140.285L105.569 122.375L124.419 119.221Z"
    fill="#24285B"
  />
<path
    opacity="0.09"
    d="M124.419 119.221C124.419 119.221 160.483 119.591 160.134 162.645L151.626 164.092C151.626 164.092 149.989 118.625 103.124 140.285L105.569 122.375L124.419 119.221Z"
    fill="black"
  />
<path
    d="M127.248 79.5897L130.379 80.4262L128.152 78.0264L127.248 79.5897Z"
    fill="#FFD200"
  />
<path
    d="M78.0537 100.9C78.0537 100.9 84.2869 116.67 99.5001 113.893C114.713 111.116 120.494 79.1708 120.494 79.1708C120.494 79.1708 126.508 75.2556 123.597 70.8879C120.686 66.5201 115.953 75.9687 115.953 75.9687C115.953 75.9687 109.398 102.888 95.2122 94.1597L78.0537 100.9Z"
    fill="#F4A28C"
  />
<path
    opacity="0.09"
    d="M78.0537 100.9C78.0537 100.9 84.2869 116.67 99.5001 113.893C114.713 111.116 120.494 79.1708 120.494 79.1708C120.494 79.1708 126.508 75.2556 123.597 70.8879C120.686 66.5201 115.953 75.9687 115.953 75.9687C115.953 75.9687 109.398 102.888 95.2122 94.1597L78.0537 100.9Z"
    fill="black"
  />
<path
    d="M78.2454 68.8658L81.5332 69.5514C81.5332 69.5514 106.946 83.3609 102.219 97.191C97.493 111.021 107.816 124.152 107.816 124.152L85.7184 139.73C85.7184 139.73 56.8538 125.393 61.176 85.898C61.176 85.898 63.1829 67.5013 78.2454 68.8658Z"
    fill="#305677"
  />
<path
    d="M136.645 76.6731L132.478 74.6675L115.372 110.28L119.538 112.286L136.645 76.6731Z"
    fill="#E6E6E6"
  />
<path
    opacity="0.58"
    d="M195.656 159.676C195.656 159.676 188.642 157.756 187.115 151.221C187.115 151.221 197.985 149.02 198.293 160.252L195.656 159.676Z"
    fill="#305677"
  />
<path
    opacity="0.73"
    d="M196.499 158.99C196.499 158.99 191.594 151.235 195.91 143.98C195.91 143.98 204.177 149.233 200.506 159.01L196.499 158.99Z"
    fill="#305677"
  />
<path
    d="M197.759 158.99C197.759 158.99 200.348 150.796 208.178 149.247C208.178 149.247 209.65 154.567 203.109 159.011L197.759 158.99Z"
    fill="#305677"
  />
<path
    d="M192.67 158.791L194.094 168.534L203.054 168.569L204.376 158.839L192.67 158.791Z"
    fill="#24285B"
  />
<path
    d="M77.0399 51.5176L72.4644 67.6652L81.5333 69.5508L81.2251 57.0441L77.0399 51.5176Z"
    fill="#F4A28C"
  />
<path
    opacity="0.31"
    d="M81.4104 59.7804C80.3098 59.3507 79.3579 58.6098 78.6705 57.6479C78.6705 57.6479 78.4376 60.7129 81.4104 64.1207V59.7804Z"
    fill="#CE8172"
  />
<path
    d="M86.4307 52.0249C86.4307 52.0249 85.9787 57.1263 84.5402 60.3147C84.4013 60.6255 84.202 60.9055 83.9539 61.1384C83.7057 61.3713 83.4137 61.5524 83.0949 61.6711C82.7761 61.7898 82.4369 61.8438 82.097 61.8299C81.7571 61.8159 81.4234 61.7344 81.1154 61.59C79.5194 60.8426 77.5809 59.3684 77.4919 56.6052L76.7658 51.9357C76.7201 50.9852 76.9694 50.0438 77.4796 49.2409C77.9899 48.4379 78.7359 47.8128 79.6153 47.4514C82.8347 45.8538 86.8623 48.8982 86.4307 52.0249Z"
    fill="#F4A28C"
  />
<path
    d="M80.3142 55.357C80.3142 55.357 80.6225 53.4097 79.1361 53.3C77.6497 53.1903 77.1908 56.0016 79.1361 56.6118L80.3142 55.357Z"
    fill="#F4A28C"
  />
<path
    d="M85.9787 55.186L87.0404 57.3802C87.1003 57.505 87.1278 57.643 87.1204 57.7813C87.1129 57.9196 87.0706 58.0538 86.9975 58.1714C86.9245 58.289 86.8229 58.3863 86.7022 58.4541C86.5816 58.522 86.4458 58.5582 86.3075 58.5596H84.321L85.9787 55.186Z"
    fill="#F4A28C"
  />
<path
    d="M128.156 78.0255L112.507 68.9814L111.607 70.5432L127.255 79.5872L128.156 78.0255Z"
    fill="#24285B"
  />
<path
    opacity="0.18"
    d="M90.7873 131.152L85.7185 139.73C85.7185 139.73 67.3408 130.816 62.0734 106.694C56.8059 82.5719 74.1836 91.9726 74.1836 91.9726L90.7873 131.152Z"
    fill="black"
  />
<path
    d="M85.7185 139.73C85.7185 139.73 102.747 104.98 127.926 105.11C153.106 105.241 120.392 161.185 120.392 161.185L112.09 157.804C112.09 157.804 124.419 133.806 121.282 126.078C118.145 118.351 113.35 171.655 85.7185 139.73Z"
    fill="#24285B"
  />
<path
    d="M71.1494 70.8126C71.1494 70.8126 78.7251 66.966 82.5747 74.7827C86.4242 82.5994 83.3898 116.218 99.0139 117.98C114.638 119.742 122.563 103.451 122.563 103.451C122.563 103.451 123.851 96.594 125.988 95.4558C128.125 94.3176 130.009 101.524 125.988 105.741C125.988 105.741 119.097 131.653 97.2193 132.235C75.3414 132.818 49.5797 88.5579 71.1494 70.8126Z"
    fill="#F4A28C"
  />
<path
    d="M86.4651 45.3735C86.4651 45.3735 91.4448 51.236 84.9993 52.4634C78.5537 53.6908 77.2249 54.8495 77.8413 61.3772C78.4578 67.9048 81.0127 73.9182 72.4643 78.0117C63.9159 82.1051 71.2656 88.9825 69.6902 97.0049C68.1148 105.027 60.6007 110.568 50.9768 105.096C41.353 99.6241 35.4143 85.6227 45.73 77.2368C56.0456 68.851 69.0189 66.8146 69.0189 53.2931C69.0189 39.7715 79.8003 39.0722 86.4651 45.3735Z"
    fill="#24285B"
  />
<path
    d="M127.649 105.286L121.268 102.851L119.894 106.458L126.276 108.894L127.649 105.286Z"
    fill="#305677"
  />
<path
    opacity="0.44"
    d="M127.649 105.286L121.268 102.851L119.894 106.458L126.276 108.894L127.649 105.286Z"
    fill="white"
  />
<rect
    x="193.351"
    y="20.8862"
    width="5.78879"
    height="5.78879"
    transform="rotate(-48.1128 193.351 20.8862)"
    fill="#FFD200"
  />
<rect
    x="174.639"
    y="112.385"
    width="6.61506"
    height="6.61506"
    transform="rotate(-48.1128 174.639 112.385)"
    fill="#8099B2"
  />
<rect
    x="32.9675"
    y="37.9956"
    width="5.43306"
    height="5.43306"
    transform="rotate(-48.1128 32.9675 37.9956)"
    fill="#3A5F81"
  />
<rect
    x="219.008"
    y="148.047"
    width="3.88427"
    height="3.88427"
    transform="rotate(-48.1128 219.008 148.047)"
    fill="#FFD200"
  />
<rect
    width="2.80052"
    height="2.79301"
    transform="matrix(0.658469 -0.752608 0.736179 0.676787 316.101 92.2217)"
    fill="#FFD200"
  />
<rect
    width="4.65696"
    height="4.64448"
    transform="matrix(0.658469 -0.752608 0.736179 0.676787 283.789 147.987)"
    fill="#3A5F81"
  />
<rect
    width="4.65696"
    height="4.64448"
    transform="matrix(0.658469 -0.752608 0.736179 0.676787 301.609 65.6123)"
    fill="#3A5F81"
  />
</svg>
