<svg
  width="1356"
  height="414"
  viewBox="0 0 1356 414"
  fill="none"
  xmlns="http://www.w3.org/2000/svg"
>
  <path
    opacity="0.3"
    d="M277.707 406.101C412.176 406.101 521.186 393.718 521.186 378.443C521.186 363.169 412.176 350.786 277.707 350.786C143.238 350.786 34.2285 363.169 34.2285 378.443C34.2285 393.718 143.238 406.101 277.707 406.101Z"
    fill="#E6E6E6"
  />
  <path
    d="M108.612 212.805C108.612 212.805 72.435 230.151 67.7148 270.121C62.9947 310.091 49.6646 387.276 147.803 382.874C245.942 378.473 292.221 372.993 269.081 297.932C245.942 222.871 108.612 212.805 108.612 212.805Z"
    fill="#FFD200"
  />
  <path
    opacity="0.09"
    d="M104.907 233.568C103.893 239.209 104.595 245.024 106.922 250.26C109.25 255.497 113.096 259.912 117.96 262.934C131.275 271.722 151.786 302.95 167.668 318.741C170.146 321.201 172.105 324.135 173.425 327.369C174.746 330.603 175.403 334.071 175.355 337.564C175.355 340.411 176.509 343.566 180.26 346.645C191.299 355.679 237.624 360.189 263.531 332.393C289.438 304.597 255.275 290.837 255.275 290.837L141.407 229.135L104.907 233.568Z"
    fill="black"
  />
  <path
    d="M356.612 369.639C356.612 369.639 359.026 375.796 365.083 377.119C371.141 378.443 374.431 385.954 361.194 384.815C347.956 383.676 340.683 385.677 342.59 378.397C344.496 371.117 343.635 370.024 343.635 370.024L356.612 369.639Z"
    fill="#F4A28C"
  />
  <path
    d="M267.713 364.514C267.713 364.514 266.699 370.994 271.204 375.288C275.708 379.582 274.755 387.601 263.977 379.905C253.199 372.21 245.896 370.194 251.231 364.899C256.567 359.605 256.382 358.219 256.382 358.219L267.713 364.514Z"
    fill="#F4A28C"
  />
  <path
    d="M279.275 272.399C279.275 272.399 360.225 273.23 359.441 369.869L340.345 373.117C340.345 373.117 336.67 271.06 231.475 319.68L236.963 279.479L279.275 272.399Z"
    fill="#24285B"
  />
  <path
    opacity="0.09"
    d="M279.275 272.399C279.275 272.399 360.225 273.23 359.441 369.869L340.345 373.117C340.345 373.117 336.67 271.06 231.475 319.68L236.963 279.479L279.275 272.399Z"
    fill="black"
  />
  <path
    d="M285.625 183.441L292.651 185.319L287.654 179.932L285.625 183.441Z"
    fill="#FFD200"
  />
  <path
    d="M175.201 231.275C175.201 231.275 189.192 266.674 223.34 260.441C257.488 254.207 270.465 182.501 270.465 182.501C270.465 182.501 283.964 173.713 277.43 163.909C270.895 154.105 260.271 175.314 260.271 175.314C260.271 175.314 245.557 235.738 213.716 216.146L175.201 231.275Z"
    fill="#F4A28C"
  />
  <path
    opacity="0.09"
    d="M175.201 231.275C175.201 231.275 189.192 266.674 223.34 260.441C257.488 254.207 270.465 182.501 270.465 182.501C270.465 182.501 283.964 173.713 277.43 163.909C270.895 154.105 260.271 175.314 260.271 175.314C260.271 175.314 245.557 235.738 213.716 216.146L175.201 231.275Z"
    fill="black"
  />
  <path
    d="M175.632 159.37L183.012 160.909C183.012 160.909 240.053 191.906 229.444 222.95C218.836 253.993 242.006 283.467 242.006 283.467L192.406 318.435C192.406 318.435 127.616 286.252 137.317 197.601C137.317 197.601 141.822 156.307 175.632 159.37Z"
    fill="#305677"
  />
  <path
    d="M306.716 176.895L297.363 172.393L258.966 252.33L268.319 256.832L306.716 176.895Z"
    fill="#E6E6E6"
  />
  <path
    opacity="0.58"
    d="M439.175 363.205C439.175 363.205 423.431 358.896 420.002 344.228C420.002 344.228 444.402 339.288 445.094 364.498L439.175 363.205Z"
    fill="#305677"
  />
  <path
    opacity="0.73"
    d="M441.066 361.666C441.066 361.666 430.058 344.259 439.744 327.975C439.744 327.975 458.301 339.765 450.06 361.712L441.066 361.666Z"
    fill="#305677"
  />
  <path
    d="M443.896 361.666C443.896 361.666 449.707 343.274 467.281 339.796C467.281 339.796 470.587 351.739 455.903 361.712L443.896 361.666Z"
    fill="#305677"
  />
  <path
    d="M432.472 361.219L435.67 383.09L455.78 383.167L458.748 361.327L432.472 361.219Z"
    fill="#24285B"
  />
  <path
    d="M172.926 120.43L162.655 156.676L183.012 160.908L182.32 132.835L172.926 120.43Z"
    fill="#F4A28C"
  />
  <path
    opacity="0.31"
    d="M182.736 138.977C180.265 138.012 178.129 136.349 176.586 134.19C176.586 134.19 176.063 141.07 182.736 148.719V138.977Z"
    fill="#CE8172"
  />
  <path
    d="M194.005 121.569C194.005 121.569 192.99 133.019 189.761 140.176C189.45 140.874 189.002 141.502 188.445 142.025C187.888 142.548 187.233 142.954 186.517 143.221C185.802 143.487 185.04 143.608 184.277 143.577C183.514 143.546 182.765 143.363 182.074 143.039C178.492 141.361 174.14 138.052 173.941 131.85L172.311 121.369C172.208 119.235 172.768 117.122 173.913 115.32C175.058 113.517 176.733 112.114 178.707 111.303C185.933 107.717 194.974 114.55 194.005 121.569Z"
    fill="#F4A28C"
  />
  <path
    d="M180.275 129.049C180.275 129.049 180.967 124.678 177.631 124.432C174.294 124.185 173.264 130.496 177.631 131.865L180.275 129.049Z"
    fill="#F4A28C"
  />
  <path
    d="M192.99 128.665L195.373 133.59C195.508 133.87 195.57 134.18 195.553 134.49C195.536 134.801 195.441 135.102 195.277 135.366C195.113 135.63 194.885 135.848 194.614 136C194.344 136.153 194.039 136.234 193.728 136.237H189.27L192.99 128.665Z"
    fill="#F4A28C"
  />
  <path
    d="M287.662 179.93L252.537 159.63L250.515 163.135L285.641 183.436L287.662 179.93Z"
    fill="#24285B"
  />
  <path
    opacity="0.18"
    d="M203.783 299.18L192.406 318.434C192.406 318.434 151.155 298.426 139.331 244.281C127.508 190.136 166.514 211.237 166.514 211.237L203.783 299.18Z"
    fill="black"
  />
  <path
    d="M192.406 318.435C192.406 318.435 230.628 240.434 287.147 240.726C343.665 241.019 270.234 366.593 270.234 366.593L251.6 359.005C251.6 359.005 279.275 305.137 272.233 287.791C265.191 270.446 254.429 390.094 192.406 318.435Z"
    fill="#24285B"
  />
  <path
    d="M159.704 163.74C159.704 163.74 176.709 155.106 185.349 172.652C193.99 190.197 187.179 265.659 222.249 269.614C257.32 273.569 275.109 237.001 275.109 237.001C275.109 237.001 277.999 221.61 282.796 219.055C287.593 216.5 291.821 232.676 282.796 242.141C282.796 242.141 267.329 300.303 218.221 301.612C169.113 302.92 111.288 203.572 159.704 163.74Z"
    fill="#F4A28C"
  />
  <path
    d="M194.082 106.64C194.082 106.64 205.259 119.799 190.791 122.554C176.324 125.309 173.341 127.91 174.725 142.562C176.108 157.214 181.843 170.712 162.655 179.9C143.467 189.088 159.965 204.525 156.428 222.533C152.892 240.54 136.026 252.976 114.424 240.694C92.8219 228.412 79.4918 196.984 102.647 178.161C125.801 159.338 154.922 154.767 154.922 124.416C154.922 94.0652 179.122 92.4953 194.082 106.64Z"
    fill="#24285B"
  />
  <path
    d="M286.525 241.122L272.202 235.655L269.118 243.752L283.442 249.218L286.525 241.122Z"
    fill="#305677"
  />
  <path
    opacity="0.44"
    d="M286.525 241.122L272.202 235.655L269.118 243.752L283.442 249.218L286.525 241.122Z"
    fill="white"
  />
  <rect
    x="434"
    y="51.6746"
    width="12.9937"
    height="12.9937"
    transform="rotate(-48.1128 434 51.6746)"
    fill="#FFD200"
  />
  <rect
    x="392"
    y="257.055"
    width="14.8483"
    height="14.8483"
    transform="rotate(-48.1128 392 257.055)"
    fill="#8099B2"
  />
  <rect
    x="74"
    y="90.0789"
    width="12.1952"
    height="12.1952"
    transform="rotate(-48.1128 74 90.0789)"
    fill="#3A5F81"
  />
  <rect
    x="491.592"
    y="337.102"
    width="8.71874"
    height="8.71874"
    transform="rotate(-48.1128 491.592 337.102)"
    fill="#FFD200"
  />
  <rect
    width="11.9163"
    height="11.9714"
    transform="matrix(0.683295 -0.730142 0.758381 0.651811 889.987 293.195)"
    fill="#8099B2"
  />
  <rect
    width="6.05773"
    height="6.08573"
    transform="matrix(0.683295 -0.730142 0.758381 0.651811 709.529 198.32)"
    fill="#FFD200"
  />
  <rect
    width="6.89679"
    height="6.92867"
    transform="matrix(0.683295 -0.730142 0.758381 0.651811 1208 336.619)"
    fill="#8099B2"
  />
  <rect
    width="6.89679"
    height="6.92867"
    transform="matrix(0.683295 -0.730142 0.758381 0.651811 1328 5.03564)"
    fill="#8099B2"
  />
  <rect
    width="11.9163"
    height="11.9714"
    transform="matrix(0.683295 -0.730142 0.758381 0.651811 1054 171.617)"
    fill="#3A5F81"
  />
  <rect
    width="10.0733"
    height="10.1199"
    transform="matrix(0.683295 -0.730142 0.758381 0.651811 637 315.345)"
    fill="#3A5F81"
  />
  <rect
    width="6.05773"
    height="6.08573"
    transform="matrix(0.683295 -0.730142 0.758381 0.651811 1347 290.965)"
    fill="#FFD200"
  />
  <rect
    width="9.82058"
    height="9.86598"
    transform="matrix(0.683295 -0.730142 0.758381 0.651811 870 99.1714)"
    fill="#FFD200"
  />
  <rect
    width="10.0733"
    height="10.1199"
    transform="matrix(0.683295 -0.730142 0.758381 0.651811 677 142.48)"
    fill="#3A5F81"
  />
</svg>
