<svg width="1392" height="667" viewBox="0 0 1392 667" fill="none" xmlns="http://www.w3.org/2000/svg">
<rect x="627" y="89" width="1072" height="356" rx="178" fill="#F9F9F9"/>
<path d="M631 259C631 160.693 710.693 81 809 81H1396V437H809C710.693 437 631 357.307 631 259Z" fill="#F9F9F9"/>
<path d="M1069.73 285.744C1069.73 285.744 1063.76 312.926 1032.15 315.999C1000.54 319.073 956.342 245.336 956.342 245.336C956.342 245.336 994.486 249.201 1008.39 267.83C1022.29 286.458 1035.86 295.151 1057.63 280.668L1069.73 285.744Z" fill="#55789B"/>
<path opacity="0.2" d="M1069.73 285.744C1069.73 285.744 1063.76 312.926 1032.15 315.999C1000.54 319.073 956.342 245.336 956.342 245.336C956.342 245.336 994.486 249.201 1008.39 267.83C1022.29 286.458 1035.86 295.151 1057.63 280.668L1069.73 285.744Z" fill="white"/>
<path opacity="0.45" d="M977.801 525.846C1064.33 525.846 1134.47 516.15 1134.47 504.19C1134.47 492.231 1064.33 482.535 977.801 482.535C891.277 482.535 821.135 492.231 821.135 504.19C821.135 516.15 891.277 525.846 977.801 525.846Z" fill="#E6E6E6"/>
<path d="M954.367 489.024C954.367 489.024 952.517 495.233 956.653 498.85C960.789 502.467 958.768 507.667 953.963 505.851C949.158 504.035 942.658 491.368 942.658 491.368L947.681 485.158L954.367 489.024Z" fill="#55789B"/>
<path d="M1009.94 485.315C1009.94 485.315 1008.9 491.695 1013.47 494.769C1018.04 497.842 1016.71 503.229 1011.7 502.049C1006.69 500.869 998.638 489.134 998.638 489.134L1002.81 482.381L1009.94 485.315Z" fill="#55789B"/>
<path d="M920.002 197.57C920.002 197.57 919.395 209.523 916.301 217.114C916.001 217.856 915.556 218.53 914.993 219.098C914.429 219.665 913.758 220.116 913.019 220.422C912.279 220.728 911.486 220.885 910.685 220.882C909.884 220.879 909.092 220.717 908.355 220.405C904.561 218.853 899.88 215.515 899.429 209.073L897.314 198.207C897.137 195.986 897.655 193.766 898.797 191.852C899.939 189.939 901.649 188.427 903.69 187.526C911.03 183.615 920.795 190.305 920.002 197.57Z" fill="#F4A28C"/>
<path d="M897.983 207.475L903.457 240.058L925.6 241.083L912.725 215.624L897.983 207.475Z" fill="#F4A28C"/>
<path d="M916.969 197.648C913.262 197.295 909.608 196.508 906.084 195.304C906.919 197.068 907.217 199.039 906.941 200.97C906.664 202.902 905.826 204.71 904.529 206.171C903.306 207.673 901.575 208.677 899.662 208.996C899.009 209.067 898.348 208.986 897.731 208.76C897.114 208.533 896.558 208.168 896.107 207.691C895.655 207.215 895.32 206.64 895.127 206.013C894.935 205.385 894.89 204.722 894.997 204.075L896.692 192.82C896.951 190.621 897.805 188.533 899.16 186.781C900.516 185.028 902.324 183.676 904.389 182.87C906.162 182.154 907.98 181.558 909.832 181.085C914.497 179.936 920.499 183.755 924.853 181.333C925.291 181.095 925.783 180.973 926.282 180.981C926.78 180.989 927.268 181.125 927.699 181.376C928.129 181.628 928.487 181.986 928.738 182.416C928.988 182.847 929.123 183.334 929.13 183.832C929.13 188.489 927.341 195.754 920.701 197.415C919.48 197.703 918.218 197.781 916.969 197.648Z" fill="#24285B"/>
<path d="M905.961 205.969C905.961 205.969 906.505 201.405 903.022 201.312C899.539 201.218 898.714 207.785 903.302 209.073L905.961 205.969Z" fill="#F4A28C"/>
<path d="M919.24 205.084L921.914 210.114C922.066 210.395 922.144 210.71 922.143 211.029C922.141 211.348 922.059 211.662 921.904 211.942C921.749 212.221 921.527 212.458 921.257 212.629C920.987 212.801 920.679 212.902 920.359 212.923L915.694 213.156L919.24 205.084Z" fill="#F4A28C"/>
<path opacity="0.31" d="M914.575 219.443C911.926 219.628 909.276 219.091 906.909 217.891C906.909 217.891 907.546 226.459 918.276 226.801L914.575 219.443Z" fill="#CE8172"/>
<path d="M1001.66 381.834L1017.87 407.044C1022.14 413.671 1024.83 421.185 1025.73 429.01C1026.64 436.835 1025.74 444.763 1023.1 452.187L1011.36 485.205L999.183 482.566L1002.6 449.718C1003.12 444.73 1002.4 439.691 1000.5 435.048C998.598 430.404 995.583 426.299 991.719 423.096L967.056 402.527L985.716 381.834H1001.66Z" fill="#24285B"/>
<path d="M862.918 269.461C863.279 260.677 867.088 252.389 873.522 246.387C879.956 240.386 888.497 237.153 897.299 237.389C919.691 237.932 952.704 240.835 973.401 252.307C1007.08 270.935 1001.39 377.644 1001.39 377.644L929.13 394.611C929.13 394.611 860.866 327.239 862.918 269.461Z" fill="#55789B"/>
<path opacity="0.08" d="M894.998 256.777C894.998 256.777 925.6 270.128 938.538 323.529C951.32 376.433 999.291 344.951 999.291 344.951L998.545 378.653L929.13 394.611L914.077 378.078C914.077 378.078 868.594 328.077 894.998 256.777Z" fill="black"/>
<path d="M929.13 394.609L946.033 420.379C949.273 425.317 951.431 430.883 952.366 436.713C953.301 442.542 952.992 448.503 951.46 454.204L942.736 486.524L956.342 489.629L974.707 456.269C978.479 449.433 980.663 441.837 981.097 434.045C981.53 426.252 980.202 418.462 977.21 411.251L973.307 401.828L995.077 379.086L929.13 394.609Z" fill="#24285B"/>
<path d="M1049.16 343.212L1074.91 322.255L1048.66 290.106C1053.27 291.037 1058.06 290.524 1062.36 288.636C1066.67 286.748 1070.28 283.578 1072.71 279.559C1075.15 275.541 1076.27 270.871 1075.94 266.188C1075.61 261.505 1073.84 257.038 1070.87 253.399C1067.9 249.76 1063.88 247.126 1059.35 245.859C1054.82 244.591 1050.01 244.751 1045.58 246.317C1041.14 247.884 1037.3 250.779 1034.58 254.608C1031.86 258.437 1030.39 263.011 1030.38 267.706L1004.11 235.541L917.265 306.235L988.064 392.934L1013.82 371.977C1011.92 369.66 1010.51 366.994 1009.65 364.131C1008.79 361.268 1008.5 358.263 1008.8 355.29C1009.42 349.284 1012.39 343.767 1017.08 339.952C1021.77 336.138 1027.78 334.338 1033.8 334.95C1039.81 335.561 1045.34 338.533 1049.16 343.212Z" fill="#FFD200"/>
<path d="M820.389 341.427L804.17 316.589L773.07 336.909C774.324 332.903 774.309 328.609 773.027 324.611C771.745 320.614 769.258 317.11 765.906 314.576C762.554 312.043 758.5 310.605 754.298 310.458C750.096 310.311 745.952 311.462 742.43 313.755C738.908 316.048 736.182 319.37 734.622 323.268C733.063 327.165 732.747 331.449 733.717 335.532C734.687 339.616 736.897 343.301 740.044 346.085C743.191 348.868 747.122 350.613 751.3 351.082L720.2 371.418L775.138 455.245L859.108 400.401L842.827 375.563C840.581 377.029 838.068 378.038 835.43 378.534C832.793 379.03 830.084 379.003 827.457 378.454C824.831 377.905 822.338 376.844 820.122 375.334C817.906 373.823 816.01 371.891 814.542 369.649C813.074 367.406 812.062 364.897 811.565 362.264C811.068 359.632 811.096 356.927 811.646 354.305C812.196 351.683 813.258 349.195 814.772 346.982C816.285 344.77 818.22 342.877 820.466 341.411L820.389 341.427Z" fill="#E6E6E6"/>
<path d="M1198.88 327.719C1203.04 326.913 1206.86 324.841 1209.8 321.787C1212.74 318.734 1214.66 314.847 1215.31 310.66C1215.95 306.473 1215.28 302.189 1213.4 298.395C1211.51 294.601 1208.49 291.483 1204.76 289.466C1201.03 287.45 1196.76 286.634 1192.55 287.13C1188.33 287.626 1184.37 289.41 1181.21 292.238C1178.05 295.066 1175.85 298.799 1174.89 302.928C1173.94 307.056 1174.29 311.377 1175.89 315.3L1142.91 297.417L1128.56 323.807C1131.06 325.001 1133.3 326.692 1135.13 328.776C1136.96 330.861 1138.35 333.296 1139.21 335.932C1140.07 338.569 1140.38 341.353 1140.12 344.113C1139.87 346.874 1139.06 349.555 1137.73 351.991C1136.41 354.428 1134.6 356.569 1132.42 358.286C1130.24 360.003 1127.73 361.258 1125.05 361.976C1122.36 362.695 1119.56 362.86 1116.81 362.463C1114.07 362.066 1111.43 361.114 1109.06 359.666L1094.61 386.227L1183.59 434.35L1197.91 407.96C1195.46 406.715 1193.28 404.992 1191.5 402.892C1189.73 400.792 1188.39 398.358 1187.57 395.733C1186.75 393.109 1186.47 390.348 1186.74 387.613C1187.01 384.877 1187.82 382.224 1189.14 379.809C1190.45 377.393 1192.24 375.265 1194.39 373.55C1196.54 371.835 1199.01 370.568 1201.66 369.824C1204.31 369.079 1207.09 368.872 1209.82 369.215C1212.55 369.559 1215.18 370.445 1217.57 371.821L1231.89 345.431L1198.88 327.719Z" fill="#C9C9C9"/>
<path opacity="0.08" d="M948.785 344.92L1011.59 346.364C1011.59 346.364 1003.71 358.162 1013.75 371.977L988.002 392.934L948.785 344.92Z" fill="black"/>
<path d="M861.363 265.144C858.066 281.009 855.283 311.885 875.062 357.695C877.681 363.702 881.994 368.819 887.474 372.421C892.955 376.024 899.367 377.957 905.929 377.985L998.529 378.621L999.229 364.448L913.844 350.26C913.844 350.26 917.265 278.013 893.334 255.007C882.604 244.715 864.38 250.599 861.363 265.144Z" fill="#55789B"/>
<path opacity="0.2" d="M861.363 265.144C858.066 281.009 855.283 311.885 875.062 357.695C877.681 363.702 881.994 368.819 887.474 372.421C892.955 376.024 899.367 377.957 905.929 377.985L998.529 378.621L999.229 364.448L913.844 350.26C913.844 350.26 917.265 278.013 893.334 255.007C882.604 244.715 864.38 250.599 861.363 265.144Z" fill="white"/>
<path d="M998.638 376.525C998.638 376.525 1009.85 382.191 1015.56 376.757C1021.26 371.324 1015.82 367.443 1015.56 361.746C1015.62 360.933 1015.4 360.123 1014.94 359.448C1014.49 358.772 1013.82 358.269 1013.04 358.021C1012.02 357.715 1010.93 357.764 1009.95 358.159C1008.97 358.554 1008.15 359.272 1007.63 360.194C1006.07 362.709 1003.16 366.605 999.229 365.953L998.638 376.525Z" fill="#F4A28C"/>
<path d="M1073.96 277.315C1073.96 277.315 1067.07 268.7 1059.45 277.315C1051.83 285.931 1067.6 298.443 1073.96 277.315Z" fill="#F4A28C"/>
<path opacity="0.08" d="M913.844 350.291C908.475 349.921 903.087 349.921 897.719 350.291C902.799 347.717 908.233 345.907 913.844 344.92V350.291Z" fill="black"/>
<path d="M1018.61 162.792L1024.74 168.906L1030.86 162.792L1024.74 156.678L1018.61 162.792Z" fill="#E6E6E6"/>
<path d="M1123.78 234.035V248.115H1137.89V234.035H1123.78Z" fill="#C9C9C9"/>
<rect x="776" y="124.559" width="9.58903" height="9.58903" transform="rotate(-43.1553 776 124.559)" fill="#FFD200"/>
<rect x="1244" y="560.531" width="11" height="11" transform="rotate(-43.2076 1244 560.531)" fill="#FFD200"/>
<rect x="352.274" y="519.43" width="11" height="11" transform="rotate(9.65603 352.274 519.43)" fill="#E6E6E6"/>
<rect x="899.845" y="609" width="11" height="11" transform="rotate(9.65603 899.845 609)" fill="#C9C9C9"/>
<rect x="141.845" y="590" width="11" height="11" transform="rotate(9.65603 141.845 590)" fill="#FFD200"/>
<rect x="733.726" y="8.25586" width="11" height="11" transform="rotate(-43.2076 733.726 8.25586)" fill="#D9D9D9"/>
<rect x="1212" y="88.5312" width="11" height="11" transform="rotate(-43.2076 1212 88.5312)" fill="#FFD200"/>
<rect x="388" y="88.9385" width="18.7225" height="18.7225" transform="rotate(-48.1128 388 88.9385)" fill="#FFD200"/>
<rect x="585" y="244.938" width="18.7225" height="18.7225" transform="rotate(-48.1128 585 244.938)" fill="#C9C9C9"/>
<rect x="558" y="582.176" width="10.9834" height="10.9834" transform="rotate(-48.1128 558 582.176)" fill="#C9C9C9"/>
<rect x="488" y="156.936" width="13.4846" height="13.4846" transform="rotate(-30.9547 488 156.936)" fill="#F4F4F4"/>
<rect x="64" y="455.484" width="16.4959" height="16.4959" transform="rotate(-30.9547 64 455.484)" fill="#F4F4F4"/>
<rect x="120" y="50.1895" width="9.58903" height="9.58903" transform="rotate(-7.12605 120 50.1895)" fill="#D9D9D9"/>
<rect x="320" y="190.189" width="9.58903" height="9.58903" transform="rotate(-7.12605 320 190.189)" fill="#C9C9C9"/>
<rect x="70" y="169.189" width="9.58903" height="9.58903" transform="rotate(-7.12605 70 169.189)" fill="#D9D9D9"/>
<rect x="507" y="410.559" width="9.58903" height="9.58903" transform="rotate(-43.1553 507 410.559)" fill="#FFD200"/>
</svg>
