<svg width="1407" height="621" viewBox="0 0 1407 621" fill="none" xmlns="http://www.w3.org/2000/svg">
<path d="M563 265C563 166.693 642.693 87 741 87H1548V443H741C642.693 443 563 363.307 563 265V265Z" fill="#F9F9F9"/>
<path d="M1005.73 285.019C1005.73 285.019 999.762 312.201 968.149 315.274C936.535 318.348 892.342 244.611 892.342 244.611C892.342 244.611 930.486 248.477 944.388 267.105C958.29 285.733 971.865 294.426 993.635 279.943L1005.73 285.019Z" fill="#55789B"/>
<path opacity="0.2" d="M1005.73 285.019C1005.73 285.019 999.762 312.201 968.149 315.274C936.535 318.348 892.342 244.611 892.342 244.611C892.342 244.611 930.486 248.477 944.388 267.105C958.29 285.733 971.865 294.426 993.635 279.943L1005.73 285.019Z" fill="white"/>
<path opacity="0.45" d="M913.801 525.121C1000.33 525.121 1070.47 515.426 1070.47 503.466C1070.47 491.506 1000.33 481.81 913.801 481.81C827.277 481.81 757.135 491.506 757.135 503.466C757.135 515.426 827.277 525.121 913.801 525.121Z" fill="#E6E6E6"/>
<path d="M890.367 488.299C890.367 488.299 888.517 494.508 892.653 498.125C896.789 501.742 894.768 506.943 889.963 505.126C885.158 503.31 878.658 490.643 878.658 490.643L883.681 484.433L890.367 488.299Z" fill="#55789B"/>
<path d="M945.943 484.59C945.943 484.59 944.901 490.97 949.473 494.044C954.045 497.118 952.707 502.504 947.7 501.324C942.693 500.145 934.638 488.409 934.638 488.409L938.806 481.656L945.943 484.59Z" fill="#55789B"/>
<path d="M856.002 196.845C856.002 196.845 855.395 208.798 852.301 216.389C852.001 217.131 851.556 217.805 850.993 218.373C850.429 218.941 849.758 219.391 849.019 219.697C848.279 220.003 847.486 220.16 846.685 220.157C845.884 220.154 845.092 219.992 844.355 219.68C840.561 218.128 835.88 214.791 835.429 208.348L833.314 197.482C833.137 195.261 833.655 193.041 834.797 191.127C835.939 189.214 837.649 187.702 839.69 186.802C847.03 182.89 856.795 189.58 856.002 196.845Z" fill="#F4A28C"/>
<path d="M833.983 206.75L839.457 239.334L861.6 240.358L848.725 214.9L833.983 206.75Z" fill="#F4A28C"/>
<path d="M852.969 196.923C849.262 196.57 845.608 195.784 842.084 194.579C842.919 196.344 843.217 198.314 842.941 200.246C842.664 202.177 841.826 203.985 840.529 205.446C839.306 206.948 837.575 207.952 835.662 208.271C835.009 208.342 834.348 208.261 833.731 208.035C833.114 207.809 832.558 207.443 832.107 206.966C831.655 206.49 831.32 205.915 831.127 205.288C830.935 204.661 830.89 203.997 830.997 203.35L832.692 192.096C832.951 189.896 833.805 187.809 835.16 186.056C836.516 184.303 838.324 182.951 840.389 182.145C842.162 181.429 843.98 180.833 845.832 180.36C850.497 179.211 856.499 183.03 860.853 180.608C861.291 180.37 861.783 180.249 862.282 180.256C862.78 180.264 863.268 180.4 863.699 180.652C864.129 180.903 864.487 181.261 864.738 181.692C864.988 182.122 865.123 182.61 865.13 183.107C865.13 187.764 863.341 195.029 856.701 196.69C855.48 196.978 854.218 197.057 852.969 196.923V196.923Z" fill="#24285B"/>
<path d="M841.961 205.244C841.961 205.244 842.505 200.68 839.022 200.587C835.539 200.494 834.714 207.06 839.302 208.349L841.961 205.244Z" fill="#F4A28C"/>
<path d="M855.24 204.359L857.914 209.389C858.066 209.67 858.144 209.985 858.143 210.304C858.141 210.624 858.059 210.937 857.904 211.217C857.749 211.496 857.527 211.733 857.257 211.904C856.987 212.076 856.679 212.177 856.359 212.199L851.694 212.431L855.24 204.359Z" fill="#F4A28C"/>
<path opacity="0.31" d="M850.575 218.718C847.926 218.903 845.276 218.367 842.909 217.166C842.909 217.166 843.546 225.735 854.276 226.076L850.575 218.718Z" fill="#CE8172"/>
<path d="M937.655 381.109L953.874 406.319C958.139 412.946 960.828 420.46 961.734 428.285C962.639 436.11 961.738 444.039 959.098 451.462L947.358 484.48L935.183 481.841L938.604 448.994C939.119 444.005 938.395 438.966 936.497 434.323C934.598 429.68 931.583 425.575 927.719 422.371L903.056 401.802L921.716 381.109H937.655Z" fill="#24285B"/>
<path d="M798.918 268.736C799.279 259.953 803.088 251.664 809.522 245.662C815.956 239.661 824.497 236.428 833.299 236.664C855.691 237.208 888.704 240.11 909.401 251.582C943.082 270.211 937.391 376.919 937.391 376.919L865.13 393.887C865.13 393.887 796.866 326.514 798.918 268.736Z" fill="#55789B"/>
<path opacity="0.08" d="M830.998 256.053C830.998 256.053 861.6 269.403 874.538 322.804C887.32 375.708 935.291 344.226 935.291 344.226L934.545 377.928L865.13 393.886L850.077 377.353C850.077 377.353 804.594 327.352 830.998 256.053Z" fill="black"/>
<path d="M865.13 393.885L882.033 419.654C885.273 424.592 887.431 430.159 888.366 435.988C889.301 441.817 888.992 447.778 887.46 453.48L878.736 485.8L892.342 488.904L910.707 455.544C914.479 448.708 916.663 441.113 917.097 433.32C917.53 425.527 916.202 417.737 913.21 410.526L909.307 401.103L931.077 378.361L865.13 393.885Z" fill="#24285B"/>
<path d="M985.16 342.487L1010.91 321.531L984.663 289.381C989.272 290.313 994.056 289.799 998.362 287.911C1002.67 286.023 1006.28 282.853 1008.71 278.834C1011.15 274.816 1012.27 270.146 1011.94 265.463C1011.61 260.78 1009.84 256.313 1006.87 252.674C1003.9 249.035 999.875 246.402 995.347 245.134C990.82 243.866 986.01 244.026 981.577 245.593C977.144 247.159 973.304 250.054 970.583 253.883C967.862 257.712 966.392 262.287 966.376 266.981L940.112 234.816L853.265 305.51L924.064 392.209L949.815 371.253C947.923 368.936 946.507 366.27 945.647 363.406C944.787 360.543 944.501 357.539 944.804 354.565C945.416 348.559 948.394 343.042 953.081 339.227C957.768 335.413 963.781 333.614 969.797 334.225C975.813 334.836 981.339 337.808 985.16 342.487V342.487Z" fill="#FFD200"/>
<path d="M756.389 340.702L740.17 315.864L709.07 336.185C710.324 332.179 710.309 327.884 709.027 323.887C707.745 319.889 705.258 316.385 701.906 313.852C698.554 311.318 694.5 309.88 690.298 309.733C686.096 309.586 681.952 310.738 678.43 313.03C674.908 315.323 672.182 318.645 670.622 322.543C669.063 326.44 668.747 330.724 669.717 334.808C670.687 338.891 672.897 342.577 676.044 345.36C679.191 348.143 683.122 349.888 687.3 350.358L656.2 370.693L711.138 454.521L795.108 399.676L778.827 374.838C776.581 376.304 774.068 377.314 771.43 377.81C768.793 378.306 766.084 378.278 763.457 377.729C760.831 377.18 758.338 376.12 756.122 374.609C753.906 373.098 752.01 371.166 750.542 368.924C749.074 366.681 748.062 364.172 747.565 361.539C747.068 358.907 747.096 356.202 747.646 353.58C748.196 350.958 749.258 348.47 750.772 346.258C752.285 344.045 754.22 342.152 756.466 340.686L756.389 340.702Z" fill="#E6E6E6"/>
<path d="M1134.88 326.994C1139.04 326.188 1142.86 324.116 1145.8 321.063C1148.74 318.009 1150.66 314.123 1151.31 309.935C1151.95 305.748 1151.28 301.464 1149.4 297.67C1147.51 293.877 1144.49 290.758 1140.76 288.741C1137.03 286.725 1132.76 285.909 1128.55 286.405C1124.33 286.901 1120.37 288.685 1117.21 291.513C1114.05 294.341 1111.85 298.075 1110.89 302.203C1109.94 306.331 1110.29 310.652 1111.89 314.575L1078.91 296.692L1064.56 323.082C1067.06 324.276 1069.3 325.967 1071.13 328.052C1072.96 330.136 1074.35 332.571 1075.21 335.208C1076.07 337.844 1076.38 340.628 1076.12 343.389C1075.87 346.149 1075.06 348.83 1073.73 351.266C1072.41 353.703 1070.6 355.845 1068.42 357.561C1066.24 359.278 1063.73 360.534 1061.05 361.252C1058.36 361.97 1055.56 362.135 1052.81 361.738C1050.07 361.341 1047.43 360.389 1045.06 358.942L1030.61 385.502L1119.59 433.625L1133.91 407.235C1131.46 405.99 1129.28 404.267 1127.5 402.167C1125.73 400.067 1124.39 397.633 1123.57 395.009C1122.75 392.384 1122.47 389.623 1122.74 386.888C1123.01 384.153 1123.82 381.499 1125.14 379.084C1126.45 376.669 1128.24 374.541 1130.39 372.826C1132.54 371.111 1135.01 369.843 1137.66 369.099C1140.31 368.354 1143.09 368.147 1145.82 368.491C1148.55 368.834 1151.18 369.72 1153.57 371.097L1167.89 344.707L1134.88 326.994Z" fill="#C9C9C9"/>
<path opacity="0.08" d="M884.785 344.195L947.592 345.639C947.592 345.639 939.708 357.437 949.753 371.253L924.002 392.209L884.785 344.195Z" fill="black"/>
<path d="M797.363 264.419C794.066 280.284 791.283 311.161 811.062 356.971C813.681 362.977 817.994 368.094 823.474 371.696C828.955 375.299 835.367 377.232 841.929 377.26L934.529 377.896L935.229 363.723L849.844 349.535C849.844 349.535 853.265 277.288 829.334 254.282C818.604 243.99 800.38 249.874 797.363 264.419Z" fill="#55789B"/>
<path opacity="0.2" d="M797.363 264.419C794.066 280.284 791.283 311.161 811.062 356.971C813.681 362.977 817.994 368.094 823.474 371.696C828.955 375.299 835.367 377.232 841.929 377.26L934.529 377.896L935.229 363.723L849.844 349.535C849.844 349.535 853.265 277.288 829.334 254.282C818.604 243.99 800.38 249.874 797.363 264.419Z" fill="white"/>
<path d="M934.638 375.8C934.638 375.8 945.85 381.466 951.557 376.033C957.264 370.599 951.821 366.719 951.557 361.021C951.617 360.208 951.401 359.399 950.944 358.723C950.487 358.047 949.815 357.544 949.038 357.296C948.022 356.99 946.933 357.039 945.95 357.434C944.966 357.829 944.147 358.547 943.626 359.469C942.071 361.984 939.163 365.88 935.229 365.228L934.638 375.8Z" fill="#F4A28C"/>
<path d="M1009.96 276.591C1009.96 276.591 1003.07 267.975 995.454 276.591C987.835 285.206 1003.6 297.718 1009.96 276.591Z" fill="#F4A28C"/>
<path opacity="0.08" d="M849.844 349.566C844.475 349.197 839.087 349.197 833.719 349.566C838.799 346.992 844.233 345.182 849.844 344.195V349.566Z" fill="black"/>
<path d="M954.611 162.067L960.735 168.181L966.86 162.067L960.735 155.953L954.611 162.067Z" fill="#E6E6E6"/>
<path d="M1059.78 233.311V247.39H1073.89V233.311H1059.78Z" fill="#C9C9C9"/>
<rect x="712" y="123.834" width="9.58903" height="9.58903" transform="rotate(-43.1553 712 123.834)" fill="#FFD200"/>
<rect x="1180" y="559.806" width="11" height="11" transform="rotate(-43.2076 1180 559.806)" fill="#FFD200"/>
<rect x="288.274" y="518.705" width="11" height="11" transform="rotate(9.65603 288.274 518.705)" fill="#E6E6E6"/>
<rect x="835.845" y="608.275" width="11" height="11" transform="rotate(9.65603 835.845 608.275)" fill="#C9C9C9"/>
<rect x="77.8447" y="589.275" width="11" height="11" transform="rotate(9.65603 77.8447 589.275)" fill="#FFD200"/>
<rect x="669.726" y="7.53107" width="11" height="11" transform="rotate(-43.2076 669.726 7.53107)" fill="#D9D9D9"/>
<rect x="1148" y="87.8065" width="11" height="11" transform="rotate(-43.2076 1148 87.8065)" fill="#FFD200"/>
<rect x="324" y="88.2137" width="18.7225" height="18.7225" transform="rotate(-48.1128 324 88.2137)" fill="#FFD200"/>
<rect x="521" y="244.213" width="18.7225" height="18.7225" transform="rotate(-48.1128 521 244.213)" fill="#C9C9C9"/>
<rect x="494" y="581.451" width="10.9834" height="10.9834" transform="rotate(-48.1128 494 581.451)" fill="#C9C9C9"/>
<rect x="424" y="156.211" width="13.4846" height="13.4846" transform="rotate(-30.9547 424 156.211)" fill="#F4F4F4"/>
<rect y="454.76" width="16.4959" height="16.4959" transform="rotate(-30.9547 0 454.76)" fill="#F4F4F4"/>
<rect x="56" y="49.4647" width="9.58903" height="9.58903" transform="rotate(-7.12605 56 49.4647)" fill="#D9D9D9"/>
<rect x="256" y="189.465" width="9.58903" height="9.58903" transform="rotate(-7.12605 256 189.465)" fill="#C9C9C9"/>
<rect x="6" y="168.465" width="9.58903" height="9.58903" transform="rotate(-7.12605 6 168.465)" fill="#D9D9D9"/>
<rect x="443" y="409.834" width="9.58903" height="9.58903" transform="rotate(-43.1553 443 409.834)" fill="#FFD200"/>
</svg>
