<svg width="406" height="306" viewBox="0 0 406 306" fill="none" xmlns="http://www.w3.org/2000/svg">
<path opacity="0.45" d="M204.015 282.544C262.213 282.544 309.392 277.514 309.392 271.308C309.392 265.103 262.213 260.072 204.015 260.072C145.817 260.072 98.6377 265.103 98.6377 271.308C98.6377 277.514 145.817 282.544 204.015 282.544Z" fill="#E6E6E6"/>
<path d="M337.122 111.578C346.685 111.578 354.438 103.825 354.438 94.2619C354.438 84.6986 346.685 76.946 337.122 76.946C327.559 76.946 319.806 84.6986 319.806 94.2619C319.806 103.825 327.559 111.578 337.122 111.578Z" fill="#FFD200"/>
<path opacity="0.15" d="M337.122 127.27C355.352 127.27 370.13 112.492 370.13 94.2619C370.13 76.0322 355.352 61.2542 337.122 61.2542C318.892 61.2542 304.114 76.0322 304.114 94.2619C304.114 112.492 318.892 127.27 337.122 127.27Z" fill="#FFD200"/>
<path opacity="0.37" d="M146.16 133.938C146.16 131.211 145.077 128.596 143.149 126.668C141.22 124.74 138.605 123.656 135.878 123.656C135.324 123.657 134.77 123.704 134.224 123.798C133.041 121.596 131.285 119.754 129.14 118.469C126.996 117.184 124.544 116.504 122.044 116.5H121.536C121.87 115.201 122.041 113.864 122.044 112.522C122.098 110.327 121.713 108.144 120.911 106.101C120.109 104.058 118.906 102.196 117.373 100.624C115.841 99.053 114.009 97.8043 111.986 96.9517C109.963 96.0991 107.791 95.6599 105.596 95.6599C103.401 95.6599 101.228 96.0991 99.2049 96.9517C97.1822 97.8043 95.3506 99.053 93.8178 100.624C92.2851 102.196 91.0823 104.058 90.2802 106.101C89.4781 108.144 89.093 110.327 89.1475 112.522C89.1504 113.864 89.3209 115.201 89.655 116.5H89.1475C87.2958 116.45 85.4529 116.772 83.7275 117.446C82.0022 118.12 80.4293 119.133 79.1019 120.425C77.7745 121.717 76.7195 123.261 75.9991 124.968C75.2786 126.674 74.9075 128.508 74.9075 130.36C74.9075 132.213 75.2786 134.046 75.9991 135.753C76.7195 137.459 77.7745 139.004 79.1019 140.296C80.4293 141.588 82.0022 142.601 83.7275 143.275C85.4529 143.949 87.2958 144.27 89.1475 144.22H137.248V144.119C139.715 143.789 141.978 142.575 143.617 140.703C145.256 138.83 146.16 136.427 146.16 133.938Z" fill="#E6E6E6"/>
<path d="M200.26 245.263C249.943 245.263 290.219 204.987 290.219 155.304C290.219 105.621 249.943 65.3445 200.26 65.3445C150.576 65.3445 110.3 105.621 110.3 155.304C110.3 204.987 150.576 245.263 200.26 245.263Z" fill="#EFEFEF"/>
<path d="M133.777 96.4137C133.777 96.4137 134.569 109.396 143.47 105.549C152.372 101.702 164.379 97.4287 163.08 111.71C161.781 125.991 168.916 127.95 178.975 124.367C189.034 120.784 184.162 119.82 184.811 106.848C185.461 93.8762 168.571 93.2266 171.19 84.1423C173.809 75.0581 194.058 85.8881 187.004 66.3595C187.004 66.3088 151.509 69.2421 133.777 96.4137Z" fill="#CECECE"/>
<path d="M208.664 130.223C206.775 130.227 204.91 130.635 203.193 131.421C199.64 133.116 195.357 137.207 197.793 146.971C201.681 162.592 208.166 150.98 216.601 152.888C225.036 154.796 244.179 156.755 234.77 173.939C225.36 191.123 236.069 194.706 245.153 190.484C254.237 186.261 248.066 169.402 257.475 176.863C266.884 184.323 256.074 207.84 278.993 198.837C278.993 198.837 305.383 158.897 278.993 111.761C278.993 111.761 267.036 88.8824 257.627 96.9923C248.218 105.102 261.17 105.559 262.469 114.866C263.768 124.174 258.277 135.542 250.776 125.087C243.275 114.633 245.803 115.557 233.795 114.257C224.214 113.242 217.555 114.369 217.362 122.509C217.32 124.546 216.49 126.488 215.045 127.925C213.601 129.362 211.655 130.182 209.618 130.213L208.664 130.223Z" fill="#CECECE"/>
<path d="M206.289 79.5445C206.289 79.5445 196.951 76.9562 197.072 88.3039C197.194 99.6516 203.365 99.002 210.176 96.089C216.987 93.1759 211.191 102.575 224.132 99.9866C237.074 97.3983 238.078 94.3432 235.155 89.8366C232.232 85.33 227.36 68.1968 206.289 79.5445Z" fill="#CECECE"/>
<path d="M110.3 155.304C110.3 155.304 121.272 137.359 133.259 149.488C145.246 161.617 121.658 159.638 133.777 171.351C145.896 183.064 154.28 155.893 161.131 166.195C167.982 176.497 181.309 183.531 165.648 192.585C149.987 201.639 159.355 214.276 166.572 211.606C173.788 208.937 186.598 227.197 166.572 238.494C166.572 238.544 107.793 217.097 110.3 155.304Z" fill="#CECECE"/>
<path d="M204.35 175.888C204.35 175.888 192.028 175.888 191.987 187.571C191.947 199.254 215.007 188.2 209.648 200.857C204.289 213.514 216.885 216.925 223.858 211.657C230.831 206.389 218.783 190.514 219.961 179.309C221.138 168.103 205.72 170.702 204.35 175.888Z" fill="#CECECE"/>
<path d="M200.26 245.264C200.26 245.264 192.302 236.87 209.648 234.931C226.995 232.992 227.37 223.898 232.993 220C238.616 216.103 250.604 229.856 250.604 229.856C250.604 229.856 228.375 249.76 200.26 245.264Z" fill="#CECECE"/>
<path opacity="0.08" d="M143.46 198.675H156.655V233.936C156.655 233.936 146.505 227.907 143.46 225.024C140.415 222.142 143.46 198.675 143.46 198.675Z" fill="black"/>
<path opacity="0.08" d="M231.39 128.478C237.427 128.478 242.321 126.964 242.321 125.098C242.321 123.231 237.427 121.718 231.39 121.718C225.352 121.718 220.458 123.231 220.458 125.098C220.458 126.964 225.352 128.478 231.39 128.478Z" fill="black"/>
<path d="M253.75 81.7977C253.734 78.3589 252.925 74.9703 251.384 71.8959C249.844 68.8215 247.614 66.1444 244.869 64.0734C242.124 62.0023 238.937 60.5933 235.558 59.9561C232.179 59.3188 228.698 59.4707 225.387 60.3997C222.076 61.3288 219.025 63.01 216.47 65.3122C213.916 67.6144 211.928 70.4755 210.661 73.6723C209.394 76.8692 208.883 80.3155 209.166 83.7425C209.45 87.1695 210.522 90.4847 212.297 93.4296L231.42 124.722L250.421 93.5818C252.613 90.0434 253.767 85.9601 253.75 81.7977ZM231.42 93.663C229.258 93.663 227.144 93.0219 225.347 91.8207C223.549 90.6195 222.148 88.9123 221.321 86.9148C220.493 84.9173 220.277 82.7193 220.698 80.5988C221.12 78.4783 222.161 76.5305 223.69 75.0017C225.219 73.4729 227.167 72.4318 229.287 72.01C231.408 71.5882 233.606 71.8046 235.603 72.632C237.601 73.4594 239.308 74.8605 240.509 76.6582C241.71 78.4559 242.352 80.5694 242.352 82.7315C242.352 85.6307 241.2 88.4112 239.15 90.4612C237.1 92.5113 234.319 93.663 231.42 93.663Z" fill="#55789B"/>
<path opacity="0.08" d="M156.615 94.871C161.822 94.871 166.044 93.6259 166.044 92.0899C166.044 90.554 161.822 89.3088 156.615 89.3088C151.407 89.3088 147.185 90.554 147.185 92.0899C147.185 93.6259 151.407 94.871 156.615 94.871Z" fill="black"/>
<path d="M173.261 60.0159C173.26 57.4466 172.664 54.9124 171.521 52.6116C170.377 50.3109 168.716 48.3061 166.669 46.7542C164.621 45.2024 162.242 44.1456 159.718 43.6666C157.193 43.1876 154.593 43.2994 152.119 43.9933C149.645 44.6872 147.365 45.9444 145.458 47.6663C143.552 49.3882 142.069 51.5282 141.127 53.9186C140.185 56.309 139.81 58.885 140.03 61.4449C140.249 64.0048 141.059 66.479 142.394 68.6739L156.604 92.0189L170.764 68.7551C172.394 66.1318 173.259 63.1048 173.261 60.0159ZM156.615 68.8464C155.009 68.8464 153.439 68.3702 152.103 67.478C150.768 66.5857 149.727 65.3176 149.113 63.8338C148.498 62.3501 148.337 60.7174 148.651 59.1423C148.964 57.5672 149.737 56.1203 150.873 54.9847C152.008 53.8491 153.455 53.0758 155.03 52.7625C156.605 52.4491 158.238 52.6099 159.722 53.2245C161.206 53.8391 162.474 54.8799 163.366 56.2152C164.258 57.5505 164.735 59.1205 164.735 60.7264C164.735 62.88 163.879 64.9453 162.356 66.4681C160.833 67.9909 158.768 68.8464 156.615 68.8464Z" fill="#55789B"/>
<path opacity="0.08" d="M206.816 187.825C210.606 187.825 213.678 186.984 213.678 185.947C213.678 184.91 210.606 184.069 206.816 184.069C203.027 184.069 199.955 184.91 199.955 185.947C199.955 186.984 203.027 187.825 206.816 187.825Z" fill="black"/>
<path opacity="0.08" d="M267.178 177.949C267.178 177.949 250.938 181.339 255.526 197.234C255.526 197.234 240.159 206.308 245.376 218.082C245.376 218.082 247.558 225.106 258.378 223.938C258.378 223.938 262.956 219.878 263.738 219.026C264.519 218.173 267.178 177.949 267.178 177.949Z" fill="black"/>
<path d="M218.864 162.825C218.866 160.964 218.436 159.129 217.608 157.462C216.781 155.795 215.579 154.342 214.096 153.218C212.613 152.093 210.89 151.328 209.062 150.981C207.233 150.634 205.35 150.716 203.558 151.219C201.767 151.722 200.116 152.634 198.736 153.882C197.355 155.13 196.283 156.681 195.603 158.413C194.922 160.145 194.652 162.011 194.814 163.865C194.976 165.719 195.564 167.51 196.534 169.098L206.827 185.947L217.058 169.179C218.243 167.272 218.869 165.071 218.864 162.825ZM206.816 169.24C205.652 169.24 204.514 168.895 203.546 168.248C202.578 167.601 201.823 166.682 201.377 165.606C200.932 164.53 200.815 163.347 201.042 162.205C201.27 161.063 201.83 160.014 202.654 159.19C203.477 158.367 204.526 157.806 205.668 157.579C206.81 157.352 207.994 157.469 209.069 157.914C210.145 158.36 211.064 159.114 211.711 160.082C212.358 161.051 212.703 162.189 212.703 163.353C212.703 164.914 212.083 166.412 210.979 167.516C209.875 168.62 208.378 169.24 206.816 169.24Z" fill="#55789B"/>
<path d="M312.184 209.718C312.185 208.496 311.945 207.285 311.478 206.155C311.011 205.025 310.325 203.998 309.46 203.134C308.596 202.269 307.569 201.584 306.439 201.117C305.31 200.649 304.099 200.409 302.876 200.411C302.376 200.413 301.877 200.458 301.384 200.543C300.308 198.538 298.708 196.865 296.753 195.7C294.799 194.536 292.565 193.926 290.29 193.935H289.833C290.13 192.753 290.284 191.54 290.29 190.322C290.189 186.439 288.575 182.748 285.793 180.038C283.01 177.327 279.279 175.81 275.395 175.81C271.51 175.81 267.78 177.327 264.997 180.038C262.215 182.748 260.601 186.439 260.5 190.322C260.506 191.54 260.659 192.753 260.957 193.935H260.5C257.172 193.935 253.982 195.257 251.629 197.61C249.276 199.962 247.954 203.153 247.954 206.48C247.954 209.808 249.276 212.999 251.629 215.351C253.982 217.704 257.172 219.026 260.5 219.026H304.094V218.975C306.336 218.677 308.393 217.573 309.882 215.87C311.37 214.167 312.188 211.98 312.184 209.718Z" fill="#F7F7F7"/>
<path d="M143.46 189.56H61.6613V236.382H143.46V189.56Z" fill="#24285B"/>
<path d="M94.0702 206.876C94.0677 205.361 93.7153 203.868 93.0405 202.511C92.3658 201.155 91.3868 199.973 90.18 199.057C88.9733 198.142 87.5713 197.517 86.0834 197.232C84.5956 196.948 83.0621 197.011 81.6025 197.416C80.1429 197.821 78.7967 198.558 77.6689 199.57C76.5411 200.581 75.6621 201.839 75.1004 203.246C74.5388 204.653 74.3098 206.171 74.4312 207.681C74.5525 209.191 75.0211 210.652 75.8002 211.951L84.245 225.745L92.5985 212.053C93.5633 210.499 94.0731 208.705 94.0702 206.876ZM84.245 212.093C83.2935 212.093 82.3633 211.811 81.5721 211.282C80.7809 210.754 80.1643 210.002 79.8002 209.123C79.436 208.244 79.3407 207.277 79.5264 206.344C79.712 205.41 80.1702 204.553 80.8431 203.88C81.5159 203.207 82.3732 202.749 83.3064 202.564C84.2397 202.378 85.207 202.473 86.0862 202.837C86.9653 203.201 87.7167 203.818 88.2453 204.609C88.774 205.4 89.0561 206.331 89.0561 207.282C89.0561 208.558 88.5492 209.782 87.647 210.684C86.7447 211.586 85.521 212.093 84.245 212.093Z" fill="#FFD200"/>
<path d="M132.579 202.481H102.85V209.221H132.579V202.481Z" fill="white"/>
<path opacity="0.19" d="M132.579 214.712H102.85V221.452H132.579V214.712Z" fill="white"/>
</svg>
